# xmcd
#
# Track frame offsets: 
#        150
#        28893
#        52534
#        69520
#        92872
#        107616
#        127068
#        144621
#
# Disc length: 2175 seconds
#
# Revision: 0
# Processed by: cddbd v1.5.1PL2 Copyright (c) Steve Scherf et al.
# Submitted via: ExactAudioCopy v0.95b4
#
DISCID=6c087d08
DTITLE=Danse Society - Looking Through
DYEAR=1986
DGENRE=Acid
TTITLE0=All I Want
TTITLE1=Institution
TTITLE2=Sunset Gun
TTITLE3=Looking Through
TTITLE4=Runaway
TTITLE5=House Of Love
TTITLE6=Don't Stop Now
TTITLE7=Midnight Land
EXTD=
EXTT0=
EXTT1=
EXTT2=
EXTT3=
EXTT4=
EXTT5=
EXTT6=
EXTT7=
PLAYORDER=
